<svg version="1.1" id="Layer_1" xmlns="http://www.w3.org/2000/svg" xmlns:xlink="http://www.w3.org/1999/xlink" x="0px" y="0px"
	 width="100%" viewBox="0 0 1890 1417" enable-background="new 0 0 1890 1417" xml:space="preserve">
<path fill="#000000" opacity="1.000000" stroke="none" 
	d="
M1117.000000,1418.000000 
	C744.666748,1418.000000 372.833557,1418.000000 1.000249,1418.000000 
	C1.000166,945.666931 1.000166,473.333832 1.000083,1.000566 
	C630.999573,1.000377 1260.999146,1.000377 1890.999023,1.000189 
	C1890.999268,473.332764 1890.999268,945.665527 1890.999634,1417.999146 
	C1633.166626,1418.000000 1375.333374,1418.000000 1117.000000,1418.000000 
M1462.003662,844.500000 
	C1462.003662,795.902771 1462.003662,747.305542 1462.003662,698.354431 
	C1459.661377,698.354431 1457.859375,698.354431 1456.057373,698.354431 
	C1320.734009,698.353760 1185.410278,698.510925 1050.088135,698.103394 
	C1036.851318,698.063599 1025.447998,708.488708 1025.900879,722.000549 
	C1026.287720,733.544189 1036.809937,744.049438 1048.329834,744.021301 
	C1168.985229,743.726318 1289.641602,743.846191 1410.297729,743.851196 
	C1412.059814,743.851257 1413.822021,743.851196 1415.519531,743.851196 
	C1415.519531,892.354370 1415.519531,1040.212280 1415.519531,1188.076660 
	C1102.232666,1188.076660 789.316101,1188.076660 476.002350,1188.076660 
	C476.002350,1174.741821 475.590118,1161.594849 476.134796,1148.487427 
	C476.558746,1138.285889 466.769226,1126.291748 451.817841,1127.059204 
	C441.263855,1127.601074 430.392303,1137.491821 430.687378,1148.765259 
	C431.140747,1166.084839 430.806641,1183.425171 430.806641,1200.756714 
	C430.806671,1212.035034 430.806641,1223.313354 430.806641,1234.970459 
	C447.794952,1234.970459 464.419891,1234.970337 481.044830,1234.970337 
	C805.854187,1234.970459 1130.663574,1234.970581 1455.472900,1234.970459 
	C1461.998779,1234.970459 1462.003052,1234.969116 1462.003052,1228.471802 
	C1462.003906,1100.814575 1462.003662,973.157288 1462.003662,844.500000 
M882.499817,230.715179 
	C1060.122437,230.715179 1237.744995,230.715179 1415.894165,230.715179 
	C1415.894165,238.018372 1415.894165,244.821640 1415.894165,251.624924 
	C1415.894165,300.623108 1415.887207,349.621307 1415.921753,398.619446 
	C1415.922974,400.398407 1416.152954,402.221558 1416.581299,403.948456 
	C1418.893799,413.269684 1427.826782,420.642883 1440.751099,419.808075 
	C1451.785278,419.095276 1461.157471,410.293396 1461.170776,399.197662 
	C1461.255005,329.203644 1461.323730,259.209656 1461.397461,189.215652 
	C1461.399170,187.578354 1461.397827,185.941071 1461.397827,184.290009 
	C1117.393066,184.290009 773.828247,184.290009 430.386169,184.290009 
	C430.386169,370.954529 430.386169,557.326050 430.386169,743.824951 
	C458.764099,743.824951 486.757233,744.107544 514.741028,743.717896 
	C531.244385,743.488098 541.460999,725.210571 533.716797,710.621277 
	C529.208252,702.127502 521.770996,698.406433 512.360229,698.366882 
	C500.412476,698.316711 488.464355,698.354736 476.361389,698.354736 
	C476.361389,542.269470 476.361389,386.697235 476.361389,230.715836 
	C611.579102,230.715836 746.539429,230.715836 882.499817,230.715179 
M678.912231,1013.500000 
	C678.912231,923.750732 678.912231,834.001465 678.912231,743.879639 
	C681.687012,743.879639 683.666138,743.879639 685.645203,743.879639 
	C734.477234,743.879883 783.309265,743.880432 832.141296,743.880310 
	C876.806763,743.880127 921.472290,743.888916 966.137756,743.870605 
	C975.065186,743.866943 981.962341,739.928040 986.305786,732.240295 
	C990.664856,724.525085 990.465820,716.455933 985.731995,708.958984 
	C980.755920,701.078308 973.101929,698.198730 963.948181,698.204407 
	C871.117310,698.261902 778.286377,698.239319 685.455505,698.239258 
	C683.381775,698.239258 681.308044,698.239258 679.303101,698.239258 
	C679.303101,604.630310 679.303101,511.894623 679.303101,418.761139 
	C682.172058,418.761139 684.648438,418.761169 687.124878,418.761169 
	C892.119446,418.760620 1097.114014,418.762115 1302.108521,418.754852 
	C1315.717407,418.754364 1326.095459,408.535309 1326.044312,395.262115 
	C1325.994019,382.218170 1315.669312,372.099731 1302.338745,372.099365 
	C1080.844604,372.093445 859.350403,372.094604 637.856262,372.105682 
	C636.102173,372.105774 634.348083,372.264008 632.114136,372.371490 
	C632.114136,481.166565 632.114136,589.413269 632.114136,698.239746 
	C629.832275,698.239746 628.041870,698.239868 626.251465,698.239685 
	C617.085022,698.238770 607.912659,698.030396 598.753906,698.295288 
	C589.650574,698.558594 582.899841,703.158752 578.764954,711.136780 
	C574.848633,718.693054 575.414429,726.355713 580.087891,733.450195 
	C584.608826,740.313171 591.153503,743.842102 599.437622,743.870728 
	C610.211731,743.907898 620.986145,743.879761 632.242371,743.879761 
	C632.242371,746.510376 632.242310,748.471375 632.242310,750.432373 
	C632.242737,813.930664 632.243347,877.429016 632.243591,940.927307 
	C632.243835,994.759216 632.262024,1048.591187 632.223755,1102.423096 
	C632.218201,1110.297119 634.227295,1117.321777 640.469788,1122.482422 
	C647.955200,1128.670776 656.514099,1129.911743 665.275146,1125.958984 
	C674.274109,1121.899048 678.874146,1114.463745 678.889709,1104.497559 
	C678.936646,1074.498413 678.910156,1044.499146 678.912231,1013.500000 
z"/>
<path fill="#FDFDFD" opacity="1.000000" stroke="none" 
	d="
M1462.003662,845.000000 
	C1462.003662,973.157288 1462.003906,1100.814575 1462.003052,1228.471802 
	C1462.003052,1234.969116 1461.998779,1234.970459 1455.472900,1234.970459 
	C1130.663574,1234.970581 805.854187,1234.970459 481.044830,1234.970337 
	C464.419891,1234.970337 447.794952,1234.970459 430.806641,1234.970459 
	C430.806641,1223.313354 430.806671,1212.035034 430.806641,1200.756714 
	C430.806641,1183.425171 431.140747,1166.084839 430.687378,1148.765259 
	C430.392303,1137.491821 441.263855,1127.601074 451.817841,1127.059204 
	C466.769226,1126.291748 476.558746,1138.285889 476.134796,1148.487427 
	C475.590118,1161.594849 476.002350,1174.741821 476.002350,1188.076660 
	C789.316101,1188.076660 1102.232666,1188.076660 1415.519531,1188.076660 
	C1415.519531,1040.212280 1415.519531,892.354370 1415.519531,743.851196 
	C1413.822021,743.851196 1412.059814,743.851257 1410.297729,743.851196 
	C1289.641602,743.846191 1168.985229,743.726318 1048.329834,744.021301 
	C1036.809937,744.049438 1026.287720,733.544189 1025.900879,722.000549 
	C1025.447998,708.488708 1036.851318,698.063599 1050.088135,698.103394 
	C1185.410278,698.510925 1320.734009,698.353760 1456.057373,698.354431 
	C1457.859375,698.354431 1459.661377,698.354431 1462.003662,698.354431 
	C1462.003662,747.305542 1462.003662,795.902771 1462.003662,845.000000 
z"/>
<path fill="#FEFEFE" opacity="1.000000" stroke="none" 
	d="
M881.999756,230.715515 
	C746.539429,230.715836 611.579102,230.715836 476.361389,230.715836 
	C476.361389,386.697235 476.361389,542.269470 476.361389,698.354736 
	C488.464355,698.354736 500.412476,698.316711 512.360229,698.366882 
	C521.770996,698.406433 529.208252,702.127502 533.716797,710.621277 
	C541.460999,725.210571 531.244385,743.488098 514.741028,743.717896 
	C486.757233,744.107544 458.764099,743.824951 430.386169,743.824951 
	C430.386169,557.326050 430.386169,370.954529 430.386169,184.290009 
	C773.828247,184.290009 1117.393066,184.290009 1461.397827,184.290009 
	C1461.397827,185.941071 1461.399170,187.578354 1461.397461,189.215652 
	C1461.323730,259.209656 1461.255005,329.203644 1461.170776,399.197662 
	C1461.157471,410.293396 1451.785278,419.095276 1440.751099,419.808075 
	C1427.826782,420.642883 1418.893799,413.269684 1416.581299,403.948456 
	C1416.152954,402.221558 1415.922974,400.398407 1415.921753,398.619446 
	C1415.887207,349.621307 1415.894165,300.623108 1415.894165,251.624924 
	C1415.894165,244.821640 1415.894165,238.018372 1415.894165,230.715179 
	C1237.744995,230.715179 1060.122437,230.715179 881.999756,230.715515 
z"/>
<path fill="#C20000" opacity="1.000000" stroke="none" 
	d="
M678.912231,1014.000000 
	C678.910156,1044.499146 678.936646,1074.498413 678.889709,1104.497559 
	C678.874146,1114.463745 674.274109,1121.899048 665.275146,1125.958984 
	C656.514099,1129.911743 647.955200,1128.670776 640.469788,1122.482422 
	C634.227295,1117.321777 632.218201,1110.297119 632.223755,1102.423096 
	C632.262024,1048.591187 632.243835,994.759216 632.243591,940.927307 
	C632.243347,877.429016 632.242737,813.930664 632.242310,750.432373 
	C632.242310,748.471375 632.242371,746.510376 632.242371,743.879761 
	C620.986145,743.879761 610.211731,743.907898 599.437622,743.870728 
	C591.153503,743.842102 584.608826,740.313171 580.087891,733.450195 
	C575.414429,726.355713 574.848633,718.693054 578.764954,711.136780 
	C582.899841,703.158752 589.650574,698.558594 598.753906,698.295288 
	C607.912659,698.030396 617.085022,698.238770 626.251465,698.239685 
	C628.041870,698.239868 629.832275,698.239746 632.114136,698.239746 
	C632.114136,589.413269 632.114136,481.166565 632.114136,372.371490 
	C634.348083,372.264008 636.102173,372.105774 637.856262,372.105682 
	C859.350403,372.094604 1080.844604,372.093445 1302.338745,372.099365 
	C1315.669312,372.099731 1325.994019,382.218170 1326.044312,395.262115 
	C1326.095459,408.535309 1315.717407,418.754364 1302.108521,418.754852 
	C1097.114014,418.762115 892.119446,418.760620 687.124878,418.761169 
	C684.648438,418.761169 682.172058,418.761139 679.303101,418.761139 
	C679.303101,511.894623 679.303101,604.630310 679.303101,698.239258 
	C681.308044,698.239258 683.381775,698.239258 685.455505,698.239258 
	C778.286377,698.239319 871.117310,698.261902 963.948181,698.204407 
	C973.101929,698.198730 980.755920,701.078308 985.731995,708.958984 
	C990.465820,716.455933 990.664856,724.525085 986.305786,732.240295 
	C981.962341,739.928040 975.065186,743.866943 966.137756,743.870605 
	C921.472290,743.888916 876.806763,743.880127 832.141296,743.880310 
	C783.309265,743.880432 734.477234,743.879883 685.645203,743.879639 
	C683.666138,743.879639 681.687012,743.879639 678.912231,743.879639 
	C678.912231,834.001465 678.912231,923.750732 678.912231,1014.000000 
z"/>
</svg>