<svg version="1.1" xmlns="http://www.w3.org/2000/svg" viewBox="0 0 1366 768">
<style>
    /* These styles allow the CSS in style.css to take control */
    path { vector-effect: non-scaling-stroke; } 
</style>
<g id="signature-group">
    <path d="M254.57,463.16c-0.33,0-0.65,0.02-0.95,0.05c-0.3,0.03-0.62,0.05-0.95,0.05c-4.53,0.27-8.53-0.08-12-1.05c-3.47-0.97-5.9-2.4-7.3-4.3c-1.4-1.9-1.52-4.18-0.35-6.85c1.17-2.67,4.15-5.53,8.95-8.6c3.4-2.13,6.85-4.17,10.35-6.1s7.05-3.73,10.65-5.4c0.33-1,0.68-1.98,1.05-2.95c0.37-0.97,0.75-1.95,1.15-2.95c0.4-6.73,0.22-13.48-0.55-20.25c-0.77-6.77-1.58-13.45-2.45-20.05c-0.87-6.6-1.53-13.08-2-19.45c-0.47-6.37-0.25-12.48,0.65-18.35c0.9-5.87,2.73-11.45,5.5-16.75c2.77-5.3,6.95-10.22,12.55-14.75c4.47-3.6,9.43-7.12,14.9-10.55c5.47-3.43,11.17-6.68,17.1-9.75c5.93-3.07,11.98-5.9,18.15-8.5c6.17-2.6,12.22-4.83,18.15-6.7c5.93-1.87,11.6-3.33,17-4.4c5.4-1.07,10.27-1.6,14.6-1.6c4.13,0,7.67,0.5,10.6,1.5c2.93,1,5.17,2.6,6.7,4.8c1.67,2.47,2.08,5.42,1.25,8.85c-0.83,3.43-2.6,7.18-5.3,11.25c-2.7,4.07-6.17,8.3-10.4,12.7c-4.23,4.4-8.93,8.83-14.1,13.3c-5.17,4.47-10.6,8.82-16.3,13.05c-5.7,4.23-11.35,8.18-16.95,11.85c4.47-0.73,8.97-1.3,13.5-1.7c4.53-0.4,8.93-0.6,13.2-0.6c4.4,0,8.53,0.27,12.4,0.8c3.87,0.53,7.28,1.42,10.25,2.65c2.97,1.23,5.38,2.85,7.25,4.85c1.87,2,3,4.48,3.4,7.45c0.4,2.97-0.07,6.45-1.4,10.45c-1.33,4-3.7,8.6-7.1,13.8c-2.87,4.4-6.32,8.68-10.35,12.85c-4.03,4.17-8.48,8.25-13.35,12.25c-0.13,0.53-0.53,0.83-1.2,0.9c-5.07,4.07-10.48,7.95-16.25,11.65c-5.77,3.7-11.67,7.18-17.7,10.45c-6.03,3.27-12.1,6.28-18.2,9.05c-6.1,2.77-12.03,5.23-17.8,7.4c-5.77,2.17-11.27,4-16.5,5.5c-5.23,1.5-10.02,2.62-14.35,3.35c-1.4,2.73-2.63,4.1-3.7,4.1C255.44,466.46,254.84,465.36,254.57,463.16z M254.87,458.06c0.53-2.53,1.35-5.68,2.45-9.45c1.1-3.77,2.45-8.02,4.05-12.75c-3.2,1.53-6.12,3.07-8.75,4.6c-2.63,1.53-4.92,3-6.85,4.4c-3,2.07-5.15,3.87-6.45,5.4c-1.3,1.53-1.98,2.82-2.05,3.85c-0.07,1.03,0.42,1.85,1.45,2.45c1.03,0.6,2.38,1.03,4.05,1.3c1.67,0.27,3.57,0.42,5.7,0.45C250.6,458.35,252.74,458.26,254.87,458.06z M262.27,457.16c5.8-1,12.42-2.77,19.85-5.3c7.43-2.53,15.2-5.68,23.3-9.45c8.1-3.77,16.25-8.05,24.45-12.85s15.9-9.97,23.1-15.5c-7.07-0.53-14.4-0.35-22,0.55c-7.6,0.9-15.13,2.25-22.6,4.05c-7.47,1.8-14.68,3.95-21.65,6.45c-6.97,2.5-13.38,5.08-19.25,7.75c-0.6,5.13-1.37,9.73-2.3,13.8C264.23,450.73,263.27,454.23,262.27,457.16z M311.07,330.16c-0.13,0.87-0.45,1.22-0.95,1.05c-0.5-0.17-0.75-0.42-0.75-0.75c-0.07-0.33-0.15-0.47-0.25-0.4c-0.1,0.07-0.23,0.23-0.4,0.5c-0.17,0.27-0.32,0.58-0.45,0.95c-0.13,0.37-0.27,0.65-0.4,0.85c-2.2,4.67-4.35,9.37-6.45,14.1c-2.1,4.73-4.18,9.57-6.25,14.5c4-1.6,8.2-2.97,12.6-4.1c4.4-1.13,8.7-2.17,12.9-3.1c4.93-3.13,10.2-6.67,15.8-10.6s11.12-8.03,16.55-12.3c5.43-4.27,10.6-8.58,15.5-12.95c4.9-4.37,9.12-8.55,12.65-12.55c3.53-4,6.18-7.68,7.95-11.05c1.77-3.37,2.25-6.22,1.45-8.55c-0.73-2.13-2.43-3.83-5.1-5.1c-2.67-1.27-6.27-1.9-10.8-1.9c-4.73,0-10.4,0.75-17,2.25c-6.6,1.5-14.2,3.95-22.8,7.35c-19.67,7.8-35.02,15.77-46.05,23.9c-11.03,8.13-18.22,16.27-21.55,24.4c-1.33,3.2-2.25,6.87-2.75,11c-0.5,4.13-0.73,8.52-0.7,13.15c0.03,4.63,0.27,9.42,0.7,14.35c0.43,4.93,0.92,9.8,1.45,14.6c0.53,4.8,1.03,9.47,1.5,14c0.47,4.53,0.77,8.7,0.9,12.5c2.53-6.93,5.25-14.1,8.15-21.5s5.85-14.77,8.85-22.1c-2.47-0.33-3.42-1.35-2.85-3.05c0.57-1.7,2.72-3.62,6.45-5.75c2.87-7,5.6-13.65,8.2-19.95c2.6-6.3,4.95-11.93,7.05-16.9c2.1-4.97,3.85-9.08,5.25-12.35c1.4-3.27,2.3-5.33,2.7-6.2c0.67-1.4,1.43-2.1,2.3-2.1c0.6,0,1.12,0.29,1.55,0.85c0.43,0.57,0.62,1.12,0.55,1.65c-0.4,2.54-1.2,5.6-2.4,9.2C312.97,321.66,311.93,325.7,311.07,330.16z M268.17,428.66c6.73-2.93,13.5-5.48,20.3-7.65c6.8-2.17,13.48-3.95,20.05-5.35c6.57-1.4,12.88-2.45,18.95-3.15c6.07-0.7,11.73-1.05,17-1.05c4,0,7.7,0.2,11.1,0.6c5-4,9.6-8.1,13.8-12.3s7.83-8.5,10.9-12.9c3.2-4.53,5.47-8.53,6.8-12c1.33-3.46,1.9-6.48,1.7-9.05c-0.2-2.57-1.05-4.72-2.55-6.45c-1.5-1.73-3.5-3.13-6-4.2s-5.4-1.83-8.7-2.3c-3.3-0.46-6.85-0.7-10.65-0.7c-5.4,0-11.08,0.37-17.05,1.1c-5.97,0.73-11.68,1.67-17.15,2.8c-2.6,1.6-5.4,3.25-8.4,4.95s-6.08,3.32-9.25,4.85c-3.17,1.54-6.33,2.88-9.5,4.05c-3.17,1.17-6.22,1.98-9.15,2.45c-3.67,9.13-7.3,18.35-10.9,27.65S272.1,418.86,268.17,428.66z M310.87,359.76c-3.27,0.87-5.93,1.63-8,2.3c-1.87,0.6-3.25,1.17-4.15,1.7c-0.9,0.53-1.45,0.97-1.65,1.3c-0.2,0.33-0.08,0.55,0.35,0.65c0.43,0.1,0.98,0.05,1.65-0.15c1.27-0.4,2.92-1.1,4.95-2.1C306.05,362.46,308.33,361.23,310.87,359.76z"/>
    <path d="M411.37,406.86c0.87,0.2,1.57,0.63,2.1,1.3c0.53,0.67,0.5,1.4-0.1,2.2c-0.27,0.33-0.67,0.6-1.2,0.8c-0.53,0.2-1.07,0.3-1.6,0.3c-0.53,0-1.05-0.13-1.55-0.4s-0.82-0.7-0.95-1.3c-0.07-0.27-0.08-0.6-0.05-1c0.03-0.4,0.17-0.78,0.4-1.15c0.23-0.37,0.58-0.63,1.05-0.8C409.93,406.65,410.57,406.66,411.37,406.86z"/>
    <path d="M551.17,273.76c-1.33,2.47-2.68,4.98-4.05,7.55c-1.37,2.57-2.72,5.22-4.05,7.95c10.33-1.4,20.9-2.68,31.7-3.85c10.8-1.17,21.57-2.18,32.3-3.05c10.73-0.87,21.28-1.55,31.65-2.05c10.37-0.5,20.28-0.75,29.75-0.75c8.47,0,16.42,0.23,23.85,0.7c7.43,0.47,14.22,1.17,20.35,2.1c2.93,0.47,5.18,0.95,6.75,1.45c1.57,0.5,2.52,0.95,2.85,1.35c0.33,0.4,0.08,0.73-0.75,1c-0.83,0.27-2.15,0.4-3.95,0.4c-1.53,0-3.37-0.1-5.5-0.3c-3.4-0.33-7.2-0.58-11.4-0.75c-4.2-0.17-8.73-0.25-13.6-0.25c-9.8,0-20.67,0.3-32.6,0.9c-11.93,0.6-24.35,1.42-37.25,2.45c-12.9,1.04-26,2.23-39.3,3.6c-13.3,1.37-26.15,2.85-38.55,4.45c-3.93,8-7.82,16.25-11.65,24.75c-3.83,8.5-7.58,17.08-11.25,25.75c2.53,5.2,3.63,11.37,3.3,18.5c-0.33,7.13-1.63,14.77-3.9,22.9c6.07-0.8,12.12-1.42,18.15-1.85c6.03-0.43,11.95-0.65,17.75-0.65c5.67,0,11.05,0.23,16.15,0.7c5.1,0.47,9.75,1.2,13.95,2.2c0.6,0.2,1.03,0.5,1.3,0.9c0.27,0.4,0.37,0.79,0.3,1.15c-0.07,0.37-0.25,0.68-0.55,0.95c-0.3,0.27-0.68,0.33-1.15,0.2c-3.6-1-7.57-1.73-11.9-2.2c-4.33-0.47-8.9-0.7-13.7-0.7c-6.67,0-13.53,0.37-20.6,1.1c-7.07,0.73-14.1,1.73-21.1,3c-2.2,7.13-4.88,14.32-8.05,21.55c-3.17,7.23-6.45,14.13-9.85,20.7s-6.73,12.6-10,18.1c-3.27,5.5-6.17,10.05-8.7,13.65c-1.13,1.73-2.18,2.97-3.15,3.7c-0.97,0.73-1.82,1.1-2.55,1.1c-1.33,0-2.25-0.85-2.75-2.55c-0.5-1.7-0.55-3.62-0.15-5.75c0.4-2.6,1.2-6.05,2.4-10.35c1.2-4.3,2.72-9.25,4.55-14.85c1.83-5.6,3.95-11.79,6.35-18.55c2.4-6.77,5.03-13.95,7.9-21.55c-4.67,1.2-9.02,2.47-13.05,3.8c-4.03,1.33-7.58,2.65-10.65,3.95c-3.07,1.3-5.55,2.58-7.45,3.85s-3.08,2.43-3.55,3.5c-0.07,0.07,0.1,0.2,0.5,0.4c0.4,0.2,0.53,0.57,0.4,1.1c-0.13,0.33-0.4,0.5-0.8,0.5c-0.47,0-1.05-0.18-1.75-0.55c-0.7-0.37-1.28-0.87-1.75-1.5c-0.47-0.63-0.75-1.35-0.85-2.15c-0.1-0.8,0.22-1.63,0.95-2.5c1.2-1.53,3.05-3.05,5.55-4.55s5.5-2.95,9-4.35c3.5-1.4,7.43-2.73,11.8-4c4.37-1.27,9.02-2.43,13.95-3.5c2.8-7.4,5.77-15.02,8.9-22.85c3.13-7.83,6.4-15.82,9.8-23.95c-2.07-3.4-4.58-6.42-7.55-9.05c-2.97-2.63-6.18-4.93-9.65-6.9c-3.47-1.97-7.1-3.65-10.9-5.05c-3.8-1.4-7.58-2.52-11.35-3.35c-3.77-0.83-7.42-1.45-10.95-1.85c-3.53-0.4-6.8-0.6-9.8-0.6c-1.47,0-2.83,0.05-4.1,0.15c-1.27,0.1-2.43,0.22-3.5,0.35c-1.8,0.27-3.23,0.05-4.3-0.65c-1.07-0.7-1.85-1.58-2.35-2.65s-0.75-2.18-0.75-3.35c0-1.17,0.17-2.08,0.5-2.75c0.33-0.6,1.77-1.33,4.3-2.2c2.53-0.87,5.97-1.83,10.3-2.9c4.33-1.07,9.48-2.22,15.45-3.45c5.97-1.23,12.57-2.48,19.8-3.75c7.23-1.27,15-2.55,23.3-3.85c8.3-1.3,16.92-2.55,25.85-3.75c1.6-3.47,3.2-6.88,4.8-10.25c1.6-3.37,3.2-6.72,4.8-10.05c0.53-1,1.17-1.75,1.9-2.25c0.73-0.5,1.47-0.75,2.2-0.75c1.2,0,2.08,0.58,2.65,1.75C552.68,269.78,552.37,271.5,551.17,273.76z M446.47,315.76c6.33-0.4,12.73-0.1,19.2,0.9c6.47,1,12.63,2.62,18.5,4.85c5.87,2.23,11.3,5.07,16.3,8.5c5,3.43,9.2,7.38,12.6,11.85c3.13-7.4,6.3-14.82,9.5-22.25c3.2-7.43,6.47-14.78,9.8-22.05c-11.53,1.53-22.37,3.1-32.5,4.7c-10.13,1.6-19.03,3.2-26.7,4.8c-7.67,1.6-13.85,3.13-18.55,4.6C449.92,313.13,447.2,314.5,446.47,315.76z M496.67,396.96c-2.53,6.8-4.87,13.25-7,19.35c-2.13,6.1-4.02,11.67-5.65,16.7c-1.63,5.03-2.97,9.43-4,13.2c-1.03,3.77-1.72,6.75-2.05,8.95c0.6,0,1.58-0.8,2.95-2.4c1.37-1.6,2.97-3.83,4.8-6.7c1.83-2.87,3.83-6.23,6-10.1c2.17-3.87,4.35-8.05,6.55-12.55c2.2-4.5,4.33-9.25,6.4-14.25c2.07-5,3.9-10,5.5-15c-2.33,0.4-4.62,0.83-6.85,1.3C501.08,395.93,498.87,396.43,496.67,396.96z M498.87,391.36c2.07-0.4,4.18-0.78,6.35-1.15c2.17-0.37,4.32-0.72,6.45-1.05c2-7,3.33-13.68,4-20.05c0.67-6.37,0.23-12.02-1.3-16.95c-2.8,6.8-5.5,13.47-8.1,20C503.67,378.7,501.2,385.1,498.87,391.36z"/>
    <path d="M623.87,390.26c-0.4,0.6-0.93,1.38-1.6,2.35c-0.67,0.97-1.33,1.98-2,3.05c-0.67,1.07-1.23,2.13-1.7,3.2c-0.47,1.07-0.77,1.97-0.9,2.7c-0.27,1.53-0.12,2.62,0.45,3.25c0.57,0.63,1.32,0.95,2.25,0.95c0.93,0,1.98-0.28,3.15-0.85c1.17-0.57,2.18-1.25,3.05-2.05c1.27-1.13,2.5-2.43,3.7-3.9c1.2-1.47,2.28-2.85,3.25-4.15c0.97-1.3,1.77-2.43,2.4-3.4c0.63-0.97,1.02-1.52,1.15-1.65c0.2-0.2,0.43-0.3,0.7-0.3c0.33,0,0.63,0.2,0.9,0.6c0.27,0.4,0.23,0.8-0.1,1.2c-0.93,1.4-2.08,3.07-3.45,5c-1.37,1.93-2.87,3.78-4.5,5.55c-1.63,1.77-3.38,3.27-5.25,4.5c-1.87,1.23-3.77,1.85-5.7,1.85c-1.53,0-2.85-0.47-3.95-1.4c-1.1-0.93-1.75-2.4-1.95-4.4c-0.67,0.8-1.42,1.63-2.25,2.5c-0.83,0.87-1.73,1.67-2.7,2.4c-0.97,0.73-1.98,1.33-3.05,1.8c-1.07,0.47-2.13,0.7-3.2,0.7c-1.67,0-3.1-0.55-4.3-1.65c-1.2-1.1-1.67-2.82-1.4-5.15c0.27-2.53,0.98-4.93,2.15-7.2c1.17-2.27,2.57-4.27,4.2-6c1.63-1.73,3.4-3.1,5.3-4.1s3.68-1.5,5.35-1.5c1.73,0,3.17,0.53,4.3,1.6c0.27,0.2,0.48,0.43,0.65,0.7c0.17,0.27,0.32,0.57,0.45,0.9c0.27-0.4,0.58-0.78,0.95-1.15c0.37-0.37,0.82-0.55,1.35-0.55c0.47,0,0.92,0.13,1.35,0.4c0.43,0.27,0.77,0.63,1,1.1c0.23,0.47,0.37,0.97,0.4,1.5C624.35,389.2,624.2,389.73,623.87,390.26z M617.17,389.56c0.2-0.67,0.13-1.18-0.2-1.55c-0.33-0.37-0.87-0.55-1.6-0.55c-0.87,0-1.7,0.27-2.5,0.8c-1.2,0.73-2.47,1.72-3.8,2.95c-1.33,1.23-2.57,2.6-3.7,4.1s-2.12,3.07-2.95,4.7c-0.83,1.63-1.32,3.18-1.45,4.65c-0.07,1.47,0.47,2.2,1.6,2.2c0.87,0,1.98-0.42,3.35-1.25c1.37-0.83,2.75-2.02,4.15-3.55c1.4-1.53,2.75-3.37,4.05-5.5C615.42,394.43,616.43,392.1,617.17,389.56z"/>
    <path d="M655.57,402.06c0.93-1.4,1.7-2.83,2.3-4.3c0.6-1.47,1-2.83,1.2-4.1c0.2-1.27,0.2-2.33,0-3.2c-0.2-0.87-0.63-1.43-1.3-1.7c-1.33-0.53-2.87-0.38-4.6,0.45c-1.73,0.83-3.53,2.05-5.4,3.65c-1.87,1.6-3.72,3.43-5.55,5.5c-1.83,2.07-3.52,4.08-5.05,6.05c-1.53,1.97-2.83,3.73-3.9,5.3c-1.07,1.57-1.77,2.62-2.1,3.15c-0.87,1.33-1.87,2-3,2c-0.73,0-1.3-0.32-1.7-0.95c-0.4-0.63-0.37-1.52,0.1-2.65c0.8-2.07,2.03-5.15,3.7-9.25c1.67-4.1,3.68-8.8,6.05-14.1c2.37-5.3,5.03-10.98,8-17.05c2.97-6.07,6.12-12.1,9.45-18.1c3.33-6,6.82-11.77,10.45-17.3c3.63-5.53,7.32-10.43,11.05-14.7c3.73-4.27,7.45-7.67,11.15-10.2c3.7-2.53,7.32-3.8,10.85-3.8c1.47,0,2.87,0.23,4.2,0.7c2.07,0.67,3.6,2.12,4.6,4.35c1,2.23,1.23,5.1,0.7,8.6c-0.53,3.5-1.95,7.62-4.25,12.35c-2.3,4.73-5.7,9.97-10.2,15.7c-4.5,5.73-10.25,11.9-17.25,18.5c-7,6.6-15.47,13.57-25.4,20.9c2.53-1.27,4.83-1.9,6.9-1.9c1.33,0,2.5,0.23,3.5,0.7c2.13,1,3.33,2.8,3.6,5.4c0.27,2.6-0.17,5.37-1.3,8.3c2.93-0.93,5.8-2.17,8.6-3.7c2.8-1.53,5.4-3.77,7.8-6.7c0.33-0.33,0.63-0.5,0.9-0.5c0.4,0,0.7,0.18,0.9,0.55c0.2,0.37,0.13,0.78-0.2,1.25c-1.33,1.8-2.75,3.35-4.25,4.65c-1.5,1.3-3.08,2.4-4.75,3.3c-1.67,0.9-3.37,1.65-5.1,2.25c-1.73,0.6-3.47,1.13-5.2,1.6c-0.8,1.53-1.75,3.02-2.85,4.45c-1.1,1.43-2.3,2.68-3.6,3.75c-1.3,1.07-2.7,1.92-4.2,2.55c-1.5,0.63-3.05,0.95-4.65,0.95c-0.87,0-1.9-0.17-3.1-0.5c-1.2-0.4-2.08-0.97-2.65-1.7c-0.57-0.73-0.83-1.53-0.8-2.4c0.03-0.87,0.37-1.72,1-2.55c0.63-0.83,1.58-1.52,2.85-2.05c1.93-0.8,3.95-1.45,6.05-1.95S653.37,402.6,655.57,402.06z M639.47,395.06c-0.07,0-0.17,0.07-0.3,0.2c0,0.07-0.07,0.17-0.2,0.3c0.2-0.13,0.38-0.27,0.55-0.4c0.17-0.13,0.32-0.27,0.45-0.4c-0.13,0.07-0.22,0.12-0.25,0.15C639.68,394.95,639.6,395,639.47,395.06z M641.17,391.06c10.13-7.27,18.83-14.17,26.1-20.7c7.27-6.53,13.33-12.65,18.2-18.35c4.87-5.7,8.65-10.88,11.35-15.55c2.7-4.67,4.57-8.75,5.6-12.25c1.03-3.5,1.32-6.33,0.85-8.5c-0.47-2.17-1.4-3.55-2.8-4.15c-1-0.47-2.1-0.7-3.3-0.7c-2.33,0-4.8,0.88-7.4,2.65c-2.6,1.77-5.25,4.15-7.95,7.15s-5.43,6.48-8.2,10.45c-2.77,3.97-5.45,8.15-8.05,12.55c-2.6,4.4-5.13,8.9-7.6,13.5c-2.47,4.6-4.75,9-6.85,13.2c-2.1,4.2-4,8.1-5.7,11.7C643.72,385.66,642.3,388.66,641.17,391.06z M653.37,404.96c-1.53,0.33-3.03,0.72-4.5,1.15c-1.47,0.43-2.87,0.95-4.2,1.55c-1.8,0.8-2.6,1.43-2.4,1.9c0.2,0.47,1.27,0.5,3.2,0.1c1.53-0.27,2.95-0.83,4.25-1.7C651.02,407.1,652.23,406.1,653.37,404.96z"/>
    <path d="M686.87,388.16c-1.87,2-3.58,4.2-5.15,6.6c-1.57,2.4-2.8,4.75-3.7,7.05s-1.38,4.42-1.45,6.35c-0.07,1.93,0.5,3.46,1.7,4.6c0.53,0.47,1.3,0.7,2.3,0.7c1.4,0,3.1-0.47,5.1-1.4s4.15-2.15,6.45-3.65s4.63-3.15,7-4.95c2.37-1.8,4.63-3.58,6.8-5.35c2.17-1.77,4.1-3.4,5.8-4.9c1.7-1.5,3.02-2.68,3.95-3.55c0.27-0.27,0.53-0.37,0.8-0.3c0.27,0.07,0.48,0.2,0.65,0.4c0.17,0.2,0.27,0.45,0.3,0.75c0.03,0.3-0.08,0.55-0.35,0.75c-0.6,0.47-1.68,1.45-3.25,2.95c-1.57,1.5-3.42,3.22-5.55,5.15c-2.13,1.93-4.48,3.97-7.05,6.1c-2.57,2.13-5.13,4.07-7.7,5.8c-2.57,1.73-5.07,3.18-7.5,4.35c-2.43,1.17-4.58,1.75-6.45,1.75c-0.8,0-1.5-0.1-2.1-0.3c-2.67-0.87-4.43-2.23-5.3-4.1c-0.87-1.87-1.17-3.98-0.9-6.35c0.27-2.37,0.97-4.82,2.1-7.35c1.13-2.53,2.37-4.87,3.7-7c1.33-2.13,2.6-3.93,3.8-5.4c1.2-1.46,2.03-2.3,2.5-2.5c0.8-0.33,1.4-0.5,1.8-0.5c1.13,0,1.88,0.52,2.25,1.55C687.78,386.45,687.6,387.36,686.87,388.16z M691.17,372.96c0.4-0.87,0.87-1.77,1.4-2.7c0.53-0.93,1.08-1.77,1.65-2.5c0.57-0.73,1.13-1.33,1.7-1.8c0.57-0.47,1.15-0.63,1.75-0.5c0.8,0.07,1.58,0.5,2.35,1.3c0.77,0.8,0.98,1.6,0.65,2.4c-0.2,0.47-0.57,1.05-1.1,1.75c-0.53,0.7-1.13,1.4-1.8,2.1c-0.67,0.7-1.32,1.33-1.95,1.9c-0.63,0.57-1.22,0.98-1.75,1.25c-0.27,0.13-0.62,0.12-1.05-0.05c-0.43-0.17-0.83-0.42-1.2-0.75c-0.37-0.33-0.62-0.71-0.75-1.15C690.93,373.78,690.97,373.36,691.17,372.96z"/>
    <path d="M731.56,401.96c-2.2,2.8-4.62,5.17-7.25,7.1c-2.63,1.93-5.15,2.9-7.55,2.9c-1.73,0-3.23-0.53-4.5-1.6c-1.8-1.53-2.83-3.45-3.1-5.75c-0.27-2.3,0.1-4.75,1.1-7.35s2.53-5.23,4.6-7.9c2.07-2.67,4.53-5.1,7.4-7.3c1.2-1,2.33-1.5,3.4-1.5c0.87,0,1.6,0.3,2.2,0.9c1.07-0.67,2.15-1.13,3.25-1.4c1.1-0.27,2.22-0.23,3.35,0.1c1.67,0.47,2.8,1.33,3.4,2.6c0.6,1.27,0.8,2.78,0.6,4.55c-0.2,1.77-0.73,3.68-1.6,5.75c-0.87,2.07-1.97,4.1-3.3,6.1c1.87,0.07,3.85-0.12,5.95-0.55c2.1-0.43,4.15-1.07,6.15-1.9c2-0.83,3.88-1.82,5.65-2.95c1.77-1.13,3.18-2.37,4.25-3.7c0.4-0.47,0.8-0.7,1.2-0.7c0.4,0,0.68,0.18,0.85,0.55c0.17,0.37,0.08,0.82-0.25,1.35c-0.87,1.2-2.25,2.48-4.15,3.85c-1.9,1.37-4.05,2.6-6.45,3.7c-2.4,1.1-4.93,1.97-7.6,2.6C736.5,402.05,733.96,402.23,731.56,401.96z M728.56,401.36c-1.13-0.4-2.2-1-3.2-1.8c-1.73-1.27-2.87-2.68-3.4-4.25c-0.53-1.57-0.63-3.15-0.3-4.75c-1.07,1-2.1,2.2-3.1,3.6c-1,1.4-1.83,2.85-2.5,4.35c-0.67,1.5-1.13,2.97-1.4,4.4c-0.27,1.43-0.17,2.75,0.3,3.95c0.6,1.54,1.57,2.3,2.9,2.3c1.47,0,3.17-0.75,5.1-2.25S726.76,403.56,728.56,401.36z M726.56,388.66c-0.13,0-0.23-0.07-0.3-0.2c-0.07-0.13-0.17-0.27-0.3-0.4c-0.67,1.4-0.98,2.87-0.95,4.4c0.03,1.53,0.58,2.9,1.65,4.1c0.87,1,2.17,1.73,3.9,2.2c1.2-1.67,2.27-3.37,3.2-5.1c0.93-1.73,1.6-3.35,2-4.85c0.4-1.5,0.46-2.78,0.2-3.85c-0.27-1.07-0.97-1.77-2.1-2.1c-0.8-0.27-1.6-0.28-2.4-0.05c-0.8,0.23-1.57,0.62-2.3,1.15c0.33,1.13,0.28,2.23-0.15,3.3C728.58,388.33,727.76,388.8,726.56,388.66z"/>
    <path d="M877.66,341.26c-0.87,0.67-1.67,1.07-2.4,1.2c-0.73,0.13-1.28,0.08-1.65-0.15c-0.37-0.23-0.48-0.6-0.35-1.1c0.13-0.5,0.63-1.08,1.5-1.75c5.13-3.73,9.8-7.57,14-11.5c4.2-3.93,7.87-7.77,11-11.5c3.13-3.73,5.73-7.28,7.8-10.65c2.07-3.37,3.53-6.33,4.4-8.9c0.87-2.57,1.12-4.67,0.75-6.3c-0.37-1.63-1.42-2.58-3.15-2.85c-3.73-0.6-8.47-0.2-14.2,1.2c-5.73,1.4-11.95,3.48-18.65,6.25c-6.7,2.77-13.63,6.07-20.8,9.9c-7.17,3.83-14.1,7.9-20.8,12.2s-12.88,8.67-18.55,13.1c-5.67,4.43-10.37,8.62-14.1,12.55c-3.73,3.93-6.22,7.48-7.45,10.65c-1.23,3.17-0.75,5.62,1.45,7.35c2.4,1.87,5.93,3.5,10.6,4.9c4.67,1.4,9.93,2.75,15.8,4.05c5.87,1.3,12.03,2.65,18.5,4.05c6.47,1.4,12.68,3.05,18.65,4.95c5.97,1.9,11.4,4.15,16.3,6.75c4.9,2.6,8.71,5.77,11.45,9.5c8.07-1.67,14.93-2.98,20.6-3.95c5.67-0.97,9.47-1.68,11.4-2.15c0.4-0.13,0.68-0.1,0.85,0.1c0.17,0.2,0.28,0.45,0.35,0.75c0.07,0.3,0.05,0.58-0.05,0.85c-0.1,0.27-0.25,0.43-0.45,0.5c-4.07,0.8-8.75,1.72-14.05,2.75c-5.3,1.03-11.02,2.22-17.15,3.55c1.33,2.33,2.15,4.9,2.45,7.7s0.02,5.87-0.85,9.2c-0.87,3.33-2.4,6.95-4.6,10.85c-2.2,3.9-5.17,8.15-8.9,12.75c-6,7.33-12.58,13.63-19.75,18.9c-7.17,5.27-14.45,9.6-21.85,13c-7.4,3.4-14.73,5.9-22,7.5c-7.27,1.6-14.03,2.4-20.3,2.4c-5,0-9.55-0.48-13.65-1.45c-4.1-0.97-7.52-2.35-10.25-4.15c-2.73-1.8-4.7-4.02-5.9-6.65c-1.2-2.63-1.38-5.62-0.55-8.95c0.83-3.33,2.78-6.98,5.85-10.95c3.07-3.97,7.47-8.22,13.2-12.75c4.2-3.33,8.87-6.43,14-9.3c5.13-2.87,10.52-5.55,16.15-8.05c5.63-2.5,11.46-4.8,17.5-6.9c6.03-2.1,12.07-4.02,18.1-5.75c6.03-1.73,11.95-3.32,17.75-4.75c5.8-1.43,11.33-2.72,16.6-3.85c-2.33-3-5.55-5.53-9.65-7.6c-4.1-2.07-8.72-3.85-13.85-5.35c-5.13-1.5-10.57-2.8-16.3-3.9c-5.73-1.1-11.33-2.2-16.8-3.3c-5.47-1.1-10.63-2.28-15.5-3.55c-4.87-1.27-8.98-2.85-12.35-4.75c-3.37-1.9-5.82-4.18-7.35-6.85c-1.53-2.67-1.73-5.9-0.6-9.7c0.87-2.8,2.78-5.93,5.75-9.4c2.97-3.47,6.7-7.1,11.2-10.9s9.57-7.65,15.2-11.55c5.63-3.9,11.53-7.68,17.7-11.35c6.17-3.67,12.43-7.1,18.8-10.3c6.37-3.2,12.48-6,18.35-8.4c5.87-2.4,11.35-4.28,16.45-5.65c5.1-1.37,9.45-2.05,13.05-2.05c2.73,0,4.93,0.43,6.6,1.3c2.8,1.47,4.47,3.47,5,6c0.53,2.53,0.18,5.42-1.05,8.65c-1.23,3.23-3.17,6.72-5.8,10.45c-2.63,3.73-5.73,7.52-9.3,11.35c-3.57,3.83-7.43,7.62-11.6,11.35C886.05,334.6,881.86,338.06,877.66,341.26z M883.86,398.76c-8.4,1.87-17.2,4.03-26.4,6.5c-9.2,2.47-18.2,5.25-27,8.35c-8.8,3.1-17.13,6.55-25,10.35c-7.87,3.8-14.73,8-20.6,12.6c-5.2,4.07-9.2,7.88-12,11.45c-2.8,3.57-4.6,6.83-5.4,9.8c-0.8,2.97-0.7,5.62,0.3,7.95c1,2.33,2.7,4.32,5.1,5.95c2.4,1.63,5.4,2.88,9,3.75c3.6,0.87,7.63,1.3,12.1,1.3c5.67,0,11.82-0.75,18.45-2.25c6.63-1.5,13.37-3.82,20.2-6.95c6.83-3.13,13.55-7.17,20.15-12.1c6.6-4.93,12.7-10.87,18.3-17.8c3.73-4.6,6.7-8.8,8.9-12.6s3.78-7.3,4.75-10.5c0.97-3.2,1.35-6.1,1.15-8.7C885.66,403.26,885,400.9,883.86,398.76z"/>
    <path d="M938.46,389.26c-0.13,0.13-0.43,0.22-0.9,0.25c-0.47,0.03-0.87-0.25-1.2-0.85c-0.13-0.27-0.27-0.67-0.4-1.2c-0.13-0.53-0.33-0.93-0.6-1.2c-0.4-0.47-1.03-0.7-1.9-0.7c-0.93,0-2.02,0.28-3.25,0.85c-1.23,0.57-2.47,1.35-3.7,2.35c-1.23,1-2.38,2.2-3.45,3.6c-1.07,1.4-1.9,2.93-2.5,4.6c-0.67,1.8-0.97,3.57-0.9,5.3c0.07,1.73,0.5,3.25,1.3,4.55c0.8,1.3,2,2.25,3.6,2.85c1.6,0.6,3.6,0.67,6,0.2c2.93-0.53,6.48-2.32,10.65-5.35c4.17-3.03,8.55-7.88,13.15-14.55c0.2-0.27,0.43-0.4,0.7-0.4c0.4,0,0.75,0.2,1.05,0.6c0.3,0.4,0.32,0.77,0.05,1.1c-1.67,2.27-3.6,4.7-5.8,7.3c-2.2,2.6-4.62,5-7.25,7.2c-2.63,2.2-5.42,4.03-8.35,5.5c-2.93,1.47-5.97,2.2-9.1,2.2c-2.33,0-4.33-0.5-6-1.5c-1.67-1-2.95-2.32-3.85-3.95c-0.9-1.63-1.42-3.52-1.55-5.65c-0.13-2.13,0.17-4.3,0.9-6.5c0.6-2,1.57-3.85,2.9-5.55c1.33-1.7,2.82-3.2,4.45-4.5c1.63-1.3,3.38-2.32,5.25-3.05c1.87-0.73,3.67-1.1,5.4-1.1c0.93,0,1.97,0.17,3.1,0.5c1.13,0.33,1.93,0.85,2.4,1.55c0.47,0.7,0.73,1.43,0.8,2.2c0.07,0.77,0,1.47-0.2,2.1C939.06,388.65,938.79,389.06,938.46,389.26z"/>
    <path d="M962.46,378.46c-1.4,2.8-2.63,5.33-3.7,7.6c-1.07,2.27-1.95,4.2-2.65,5.8c-0.7,1.6-1.18,2.8-1.45,3.6c-0.27,0.8-0.3,1.1-0.1,0.9c1.8-1.93,3.82-3.98,6.05-6.15c2.23-2.17,4.48-4.17,6.75-6c2.27-1.83,4.47-3.35,6.6-4.55c2.13-1.2,4-1.8,5.6-1.8c0.87,0,1.63,0.2,2.3,0.6c1.33,0.8,1.9,2.18,1.7,4.15c-0.2,1.97-0.78,4.23-1.75,6.8c-0.97,2.57-2.12,5.28-3.45,8.15c-1.33,2.87-2.43,5.6-3.3,8.2c-0.87,2.6-1.33,4.92-1.4,6.95c-0.07,2.03,0.7,3.48,2.3,4.35c0.53,0.27,1.03,0.4,1.5,0.4c1.67,0,3.8-0.87,6.4-2.6c2.6-1.73,5.27-3.93,8-6.6c2.73-2.67,5.37-5.6,7.9-8.8c2.53-3.2,4.6-6.27,6.2-9.2c0.33-0.6,0.7-1.03,1.1-1.3c0.4-0.27,0.73-0.37,1-0.3c0.27,0.07,0.4,0.32,0.4,0.75s-0.2,1.05-0.6,1.85c-1.8,3.4-3.98,6.8-6.55,10.2c-2.57,3.4-5.28,6.48-8.15,9.25c-2.87,2.77-5.77,5.02-8.7,6.75c-2.93,1.73-5.6,2.6-8,2.6c-2.47,0-4.47-0.97-6-2.9c-1.4-1.8-2-3.98-1.8-6.55c0.2-2.57,0.78-5.27,1.75-8.1c0.97-2.83,2.13-5.67,3.5-8.5c1.37-2.83,2.52-5.35,3.45-7.55c0.53-1.33,0.7-2.27,0.5-2.8c-0.2-0.53-0.63-0.8-1.3-0.8c-1.47,0-3.17,0.7-5.1,2.1c-2.27,1.6-4.45,3.33-6.55,5.2c-2.1,1.87-4.13,3.98-6.1,6.35c-1.97,2.37-3.85,5.02-5.65,7.95c-1.8,2.93-3.5,6.27-5.1,10c-0.2,0.53-0.7,0.8-1.5,0.8c-0.67,0-1.32-0.25-1.95-0.75c-0.63-0.5-0.88-1.22-0.75-2.15c0.33-2.2,1.22-5.38,2.65-9.55c1.43-4.17,3.28-8.87,5.55-14.1c2.27-5.23,4.9-10.85,7.9-16.85s6.2-11.95,9.6-17.85c3.4-5.9,6.95-11.55,10.65-16.95c3.7-5.4,7.38-10.18,11.05-14.35c3.67-4.17,7.27-7.48,10.8-9.95c3.53-2.47,6.87-3.7,10-3.7c1.2,0,2.33,0.2,3.4,0.6c3.2,1.13,5.33,3.27,6.4,6.4c1.07,3.13,1.1,6.82,0.1,11.05c-1,4.23-3.02,8.79-6.05,13.65c-3.03,4.87-7.03,9.67-12,14.4c-4.97,4.73-10.92,9.15-17.85,13.25C979.13,372.51,971.26,375.86,962.46,378.46z M964.06,375.16c8.07-2.6,15.25-5.8,21.55-9.6s11.72-7.83,16.25-12.1c4.53-4.27,8.18-8.57,10.95-12.9c2.77-4.33,4.67-8.35,5.7-12.05c1.03-3.7,1.2-6.88,0.5-9.55c-0.7-2.67-2.25-4.47-4.65-5.4c-0.6-0.27-1.37-0.4-2.3-0.4c-2.27,0-4.73,0.97-7.4,2.9c-2.67,1.93-5.42,4.5-8.25,7.7c-2.83,3.2-5.72,6.92-8.65,11.15c-2.93,4.23-5.82,8.65-8.65,13.25c-2.83,4.6-5.53,9.22-8.1,13.85C968.45,366.65,966.13,371.03,964.06,375.16z"/>
    <path d="M1014.06,388.16c-1.87,2-3.58,4.2-5.15,6.6c-1.57,2.4-2.8,4.75-3.7,7.05s-1.38,4.42-1.45,6.35c-0.07,1.93,0.5,3.46,1.7,4.6c0.53,0.47,1.3,0.7,2.3,0.7c1.4,0,3.1-0.47,5.1-1.4s4.15-2.15,6.45-3.65c2.3-1.5,4.63-3.15,7-4.95c2.37-1.8,4.63-3.58,6.8-5.35c2.17-1.77,4.1-3.4,5.8-4.9s3.02-2.68,3.95-3.55c0.27-0.27,0.53-0.37,0.8-0.3c0.27,0.07,0.48,0.2,0.65,0.4c0.17,0.2,0.27,0.45,0.3,0.75c0.03,0.3-0.08,0.55-0.35,0.75c-0.6,0.47-1.68,1.45-3.25,2.95c-1.57,1.5-3.42,3.22-5.55,5.15c-2.13,1.93-4.48,3.97-7.05,6.1c-2.57,2.13-5.13,4.07-7.7,5.8c-2.57,1.73-5.07,3.18-7.5,4.35c-2.43,1.17-4.58,1.75-6.45,1.75c-0.8,0-1.5-0.1-2.1-0.3c-2.67-0.87-4.43-2.23-5.3-4.1c-0.87-1.87-1.17-3.98-0.9-6.35c0.27-2.37,0.97-4.82,2.1-7.35c1.13-2.53,2.37-4.87,3.7-7c1.33-2.13,2.6-3.93,3.8-5.4c1.2-1.46,2.03-2.3,2.5-2.5c0.8-0.33,1.4-0.5,1.8-0.5c1.13,0,1.88,0.52,2.25,1.55C1014.98,386.45,1014.79,387.36,1014.06,388.16z M1018.36,372.96c0.4-0.87,0.87-1.77,1.4-2.7c0.53-0.93,1.08-1.77,1.65-2.5c0.57-0.73,1.13-1.33,1.7-1.8c0.57-0.47,1.15-0.63,1.75-0.5c0.8,0.07,1.58,0.5,2.35,1.3c0.77,0.8,0.98,1.6,0.65,2.4c-0.2,0.47-0.57,1.05-1.1,1.75c-0.53,0.7-1.13,1.4-1.8,2.1c-0.67,0.7-1.32,1.33-1.95,1.9c-0.63,0.57-1.22,0.98-1.75,1.25c-0.27,0.13-0.62,0.12-1.05-0.05c-0.43-0.17-0.83-0.42-1.2-0.75c-0.37-0.33-0.62-0.71-0.75-1.15C1018.13,373.78,1018.16,373.36,1018.36,372.96z"/>
    <path d="M1041.06,405.76c-1.4,4.47-2.13,8.33-2.2,11.6c-0.07,3.27,0.73,5.67,2.4,7.2c0.33,0.33,0.83,0.63,1.5,0.9c0.67,0.27,1.5,0.4,2.5,0.4c1.46,0,3.32-0.47,5.55-1.4c2.23-0.93,4.85-2.7,7.85-5.3c3-2.6,6.4-6.2,10.2-10.8c3.8-4.6,8.03-10.6,12.7-18c0.2-0.2,0.47-0.3,0.8-0.3c0.33,0,0.67,0.12,1,0.35c0.33,0.23,0.4,0.52,0.2,0.85c-4.4,7.13-8.52,13.12-12.35,17.95c-3.83,4.83-7.38,8.73-10.65,11.7c-3.27,2.96-6.23,5.08-8.9,6.35c-2.67,1.27-5.03,1.9-7.1,1.9c-1.87,0-3.53-0.47-5-1.4c-2.47-1.6-4.07-3.88-4.8-6.85c-0.73-2.97-0.8-6.4-0.2-10.3c0.6-3.9,1.77-8.17,3.5-12.8c1.73-4.63,3.85-9.43,6.35-14.4c2.5-4.97,5.28-10.03,8.35-15.2c3.07-5.17,6.23-10.2,9.5-15.1c3.27-4.9,6.52-9.62,9.75-14.15c3.23-4.53,6.27-8.63,9.1-12.3c2.83-3.67,5.38-6.85,7.65-9.55c2.27-2.7,4.03-4.71,5.3-6.05c3-3,5.83-5.3,8.5-6.9c2.67-1.6,5-2.4,7-2.4c2.87,0,4.73,1.83,5.6,5.5c0.87,3.67,0.13,9.53-2.2,17.6c-1.13,3.73-2.82,7.88-5.05,12.45c-2.23,4.57-4.97,9.3-8.2,14.2c-3.23,4.9-6.92,9.88-11.05,14.95c-4.13,5.07-8.68,9.97-13.65,14.7c-4.97,4.73-10.3,9.22-16,13.45C1053.31,398.85,1047.33,402.56,1041.06,405.76z M1042.06,402.66c6-3.07,11.72-6.65,17.15-10.75c5.43-4.1,10.52-8.48,15.25-13.15c4.73-4.67,9.1-9.48,13.1-14.45c4-4.97,7.55-9.85,10.65-14.65c3.1-4.8,5.7-9.38,7.8-13.75c2.1-4.37,3.62-8.28,4.55-11.75c1.73-6.33,2.45-10.85,2.15-13.55c-0.3-2.7-1.32-4.05-3.05-4.05c-1.33,0-3.03,0.72-5.1,2.15c-2.07,1.43-4.3,3.35-6.7,5.75c-2.93,2.93-6.12,6.52-9.55,10.75c-3.43,4.23-6.95,8.87-10.55,13.9c-3.6,5.04-7.2,10.32-10.8,15.85c-3.6,5.53-6.97,11.08-10.1,16.65c-3.13,5.57-5.98,11-8.55,16.3C1045.74,393.21,1043.66,398.13,1042.06,402.66z"/>
    <path d="M1089.66,388.16c-1.87,2-3.58,4.2-5.15,6.6c-1.57,2.4-2.8,4.75-3.7,7.05s-1.38,4.42-1.45,6.35c-0.07,1.93,0.5,3.46,1.7,4.6c0.53,0.47,1.3,0.7,2.3,0.7c1.4,0,3.1-0.47,5.1-1.4s4.15-2.15,6.45-3.65c2.3-1.5,4.63-3.15,7-4.95c2.37-1.8,4.63-3.58,6.8-5.35c2.17-1.77,4.1-3.4,5.8-4.9s3.02-2.68,3.95-3.55c0.27-0.27,0.53-0.37,0.8-0.3c0.27,0.07,0.48,0.2,0.65,0.4c0.17,0.2,0.27,0.45,0.3,0.75c0.03,0.3-0.08,0.55-0.35,0.75c-0.6,0.47-1.68,1.45-3.25,2.95c-1.57,1.5-3.42,3.22-5.55,5.15c-2.13,1.93-4.48,3.97-7.05,6.1c-2.57,2.13-5.13,4.07-7.7,5.8c-2.57,1.73-5.07,3.18-7.5,4.35c-2.43,1.17-4.58,1.75-6.45,1.75c-0.8,0-1.5-0.1-2.1-0.3c-2.67-0.87-4.43-2.23-5.3-4.1c-0.87-1.87-1.17-3.98-0.9-6.35c0.27-2.37,0.97-4.82,2.1-7.35c1.13-2.53,2.37-4.87,3.7-7c1.33-2.13,2.6-3.93,3.8-5.4c1.2-1.46,2.03-2.3,2.5-2.5c0.8-0.33,1.4-0.5,1.8-0.5c1.13,0,1.88,0.52,2.25,1.55C1090.58,386.45,1090.39,387.36,1089.66,388.16z M1093.96,372.96c0.4-0.87,0.87-1.77,1.4-2.7c0.53-0.93,1.08-1.77,1.65-2.5c0.57-0.73,1.13-1.33,1.7-1.8c0.57-0.47,1.15-0.63,1.75-0.5c0.8,0.07,1.58,0.5,2.35,1.3c0.77,0.8,0.98,1.6,0.65,2.4c-0.2,0.47-0.57,1.05-1.1,1.75c-0.53,0.7-1.13,1.4-1.8,2.1c-0.67,0.7-1.32,1.33-1.95,1.9c-0.63,0.57-1.22,0.98-1.75,1.25c-0.27,0.13-0.62,0.12-1.05-0.05c-0.43-0.17-0.83-0.42-1.2-0.75c-0.37-0.33-0.62-0.71-0.75-1.15C1093.73,373.78,1093.76,373.36,1093.96,372.96z"/>
    <path d="M1108.66,410.06c1.53-3.53,2.98-6.88,4.35-10.05c1.37-3.17,2.58-6,3.65-8.5c1.07-2.5,1.98-4.58,2.75-6.25c0.77-1.67,1.32-2.8,1.65-3.4c0.53-0.8,1.33-1.2,2.4-1.2c0.93,0,1.67,0.3,2.2,0.9c0.53,0.6,0.33,1.47-0.6,2.6c-0.47,0.53-1,1.38-1.6,2.55c-0.6,1.17-1.23,2.48-1.9,3.95c1.8-3.4,3.6-5.97,5.4-7.7c1.8-1.73,3.33-2.6,4.6-2.6c0.8,0,1.45,0.35,1.95,1.05c0.5,0.7,0.75,1.82,0.75,3.35c0.07,3.6,0.75,6.25,2.05,7.95c1.3,1.7,2.78,2.55,4.45,2.55c1.2,0,2.37-0.42,3.5-1.25c1.13-0.83,2.13-2.02,3-3.55c0.2-0.33,0.47-0.5,0.8-0.5c0.33,0,0.63,0.13,0.9,0.4c0.27,0.27,0.33,0.57,0.2,0.9c-0.87,1.87-2.15,3.35-3.85,4.45c-1.7,1.1-3.48,1.65-5.35,1.65c-2.13,0-4.05-0.83-5.75-2.5c-1.7-1.67-2.65-4.4-2.85-8.2c-0.13-0.93-0.4-1.4-0.8-1.4c-0.27,0-0.58,0.15-0.95,0.45c-0.37,0.3-0.82,0.82-1.35,1.55c-1.2,1.6-2.57,3.67-4.1,6.2c-1.53,2.53-3.03,5.07-4.5,7.6c-1.47,2.53-2.78,4.85-3.95,6.95c-1.17,2.1-1.95,3.52-2.35,4.25c-0.67,1.2-1.5,1.8-2.5,1.8c-0.87,0-1.57-0.38-2.1-1.15C1108.23,412.15,1108.19,411.2,1108.66,410.06z"/>
    <path d="M1163.16,401.96c-2.2,2.8-4.62,5.17-7.25,7.1c-2.63,1.93-5.15,2.9-7.55,2.9c-1.73,0-3.23-0.53-4.5-1.6c-1.8-1.53-2.83-3.45-3.1-5.75c-0.27-2.3,0.1-4.75,1.1-7.35s2.54-5.23,4.6-7.9c2.07-2.67,4.53-5.1,7.4-7.3c1.2-1,2.33-1.5,3.4-1.5c0.87,0,1.6,0.3,2.2,0.9c1.07-0.67,2.15-1.13,3.25-1.4c1.1-0.27,2.22-0.23,3.35,0.1c1.67,0.47,2.8,1.33,3.4,2.6c0.6,1.27,0.8,2.78,0.6,4.55c-0.2,1.77-0.73,3.68-1.6,5.75c-0.87,2.07-1.97,4.1-3.3,6.1c1.87,0.07,3.85-0.12,5.95-0.55c2.1-0.43,4.15-1.07,6.15-1.9c2-0.83,3.88-1.82,5.65-2.95c1.77-1.13,3.18-2.37,4.25-3.7c0.4-0.47,0.8-0.7,1.2-0.7c0.4,0,0.68,0.18,0.85,0.55c0.17,0.37,0.08,0.82-0.25,1.35c-0.87,1.2-2.25,2.48-4.15,3.85c-1.9,1.37-4.05,2.6-6.45,3.7c-2.4,1.1-4.93,1.97-7.6,2.6C1168.09,402.05,1165.56,402.23,1163.16,401.96z M1160.16,401.36c-1.13-0.4-2.2-1-3.2-1.8c-1.73-1.27-2.87-2.68-3.4-4.25c-0.53-1.57-0.63-3.15-0.3-4.75c-1.07,1-2.1,2.2-3.1,3.6c-1,1.4-1.83,2.85-2.5,4.35c-0.67,1.5-1.13,2.97-1.4,4.4c-0.27,1.43-0.17,2.75,0.3,3.95c0.6,1.54,1.57,2.3,2.9,2.3c1.47,0,3.17-0.75,5.1-2.25C1156.49,405.41,1158.36,403.56,1160.16,401.36z M1158.16,388.66c-0.13,0-0.23-0.07-0.3-0.2c-0.07-0.13-0.17-0.27-0.3-0.4c-0.67,1.4-0.98,2.87-0.95,4.4c0.03,1.53,0.58,2.9,1.65,4.1c0.87,1,2.17,1.73,3.9,2.2c1.2-1.67,2.27-3.37,3.2-5.1c0.93-1.73,1.6-3.35,2-4.85c0.4-1.5,0.47-2.78,0.2-3.85c-0.27-1.07-0.97-1.77-2.1-2.1c-0.8-0.27-1.6-0.28-2.4-0.05c-0.8,0.23-1.57,0.62-2.3,1.15c0.33,1.13,0.28,2.23-0.15,3.3C1160.17,388.33,1159.36,388.8,1158.16,388.66z"/>
    <path d="M1168.29,345.11c0.65,0.59,1.02,1.17,1.12,1.72c0.06,0.37,0,0.8-0.19,1.28c-0.71,1.84-1.17,3.44-1.39,4.78c-0.22,1.35-0.25,2.51-0.08,3.51c0.22,1.3,0.7,2.29,1.44,2.96c0.74,0.67,1.48,1.2,2.21,1.59c0.6,0.28,0.98,0.92,1.15,1.91c0.13,0.74,0.09,1.61-0.12,2.6c-0.2,0.99-0.62,1.96-1.24,2.89c-1.39-0.34-2.71-1.23-3.98-2.67c-1.26-1.44-2.1-3.34-2.5-5.7c-0.33-1.92-0.25-4.13,0.25-6.64C1165.46,350.82,1166.57,348.08,1168.29,345.11z"/>
</g>
</svg>